<svg width="568" height="520" viewBox="0 0 568 520" fill="none" xmlns="http://www.w3.org/2000/svg">
<path d="M60.4963 384.801L51.8219 389.969L45.3703 385.027L45.0126 381.486L50.3451 375.353L59.878 378.682C60.8849 379.04 61.9542 378.497 62.3148 377.516C62.6729 376.509 62.1306 375.44 61.1489 375.079L50.7685 371.453C50.276 371.279 49.7416 371.261 49.2389 371.404C48.7362 371.546 48.2901 371.841 47.9621 372.247L43.9708 376.738C43.7124 376.45 43.3901 376.227 43.0299 376.086C42.6696 375.944 42.2813 375.89 41.8961 375.926C40.5053 376.066 39.4823 377.319 39.6228 378.71L39.8783 381.239L31.8368 382.051C30.278 378.76 26.6038 376.781 22.6952 378.045C19.8257 378.973 17.5777 381.755 17.3481 384.793C17.1291 388.187 19.1425 390.921 21.8777 392.203L30.5027 412.841L22.7141 413.628L23.4806 421.215L56.3549 417.893L55.5883 410.307L46.4341 411.232L31.5077 389.161C31.8763 388.51 32.1665 387.843 32.3478 387.109L40.3894 386.296L40.6449 388.825C40.7854 390.216 42.0383 391.239 43.4292 391.098C44.2384 391.017 44.9055 390.541 45.2994 389.888L50.1083 393.489C50.9436 394.171 52.102 394.258 53.0169 393.706L62.4622 388.077C63.3772 387.525 63.6694 386.371 63.1171 385.456C62.8557 385.023 62.4332 384.71 61.942 384.587C61.4508 384.465 60.931 384.542 60.4963 384.801ZM25.2166 387.829C23.8258 387.97 22.5728 386.947 22.4323 385.556C22.2918 384.165 23.3148 382.912 24.7056 382.772C26.0964 382.631 27.3494 383.654 27.4899 385.045C27.6304 386.436 26.6074 387.689 25.2166 387.829Z" fill="#4DA9E9" style="mix-blend-mode:multiply"/>
<g clip-path="url(#clip0_183_9200)">
<path d="M68.928 79.6775L80.2483 72.3259L101.031 104.328L89.7105 111.68L68.928 79.6775ZM90.1279 60.3897C98.6231 62.1954 107.003 56.7537 108.808 48.2585C109.351 45.7055 109.152 43.1789 108.501 40.8322L94.09 50.1906L88.9256 42.238L103.336 32.8797C101.457 31.3302 99.2301 30.1207 96.6771 29.578C88.1819 27.7723 79.8024 33.214 77.9967 41.7092C77.6131 43.5139 77.6003 45.3054 77.8357 47.0117L67.9618 53.4239L61.7922 43.9235L65.5817 41.4626L60.6945 33.9371L72.0095 26.589C70.0592 23.5899 66.9982 21.4875 63.4989 20.7437C59.9995 19.9999 56.348 20.6755 53.3465 22.6221L34.4525 34.8919L39.3397 42.4175L26.927 39.7791L23.1375 42.24L35.4074 61.1339L39.1969 58.673L41.8446 46.2163L46.7318 53.7418L50.5212 51.2809L56.6908 60.7813L17.1417 86.4648L24.4897 97.7798L85.2184 58.38C86.6814 59.2891 88.3232 60.0061 90.1279 60.3897Z" fill="#4DA9E9" fill-opacity="0.9" style="mix-blend-mode:multiply"/>
</g>
<path d="M551.668 40.6391L511.184 35.31C508.003 34.8912 505.058 37.1512 504.639 40.3321L499.31 80.8162C498.891 83.9971 501.151 86.9422 504.332 87.3609L544.816 92.6901C547.997 93.1088 550.942 90.8488 551.361 87.6679L556.69 47.1839C557.109 44.003 554.849 41.0578 551.668 40.6391ZM514.53 76.936C512.939 76.7266 511.809 75.2541 512.019 73.6636L513.922 59.205C514.131 57.6146 515.604 56.4846 517.194 56.694C518.785 56.9033 519.915 58.3759 519.705 59.9663L517.802 74.4249C517.593 76.0154 516.12 77.1454 514.53 76.936ZM526.097 78.4586C524.506 78.2493 523.376 76.7767 523.586 75.1862L526.631 52.0525C526.84 50.462 528.313 49.3321 529.903 49.5414C531.494 49.7508 532.624 51.2233 532.414 52.8138L529.369 75.9475C529.16 77.538 527.687 78.668 526.097 78.4586ZM537.664 79.9812C536.073 79.7719 534.943 78.2993 535.153 76.7089L535.914 70.9254C536.123 69.335 537.596 68.205 539.186 68.4143C540.777 68.6237 541.907 70.0963 541.697 71.6867L540.936 77.4702C540.727 79.0606 539.254 80.1906 537.664 79.9812Z" fill="#4DA9E9" style="mix-blend-mode:multiply"/>
<path d="M277.278 267.649L257.549 246.405L256.242 233.963L259.74 228.498C260.412 227.432 259.575 226.072 258.322 226.203L240.659 228.06C239.406 228.192 238.87 229.696 239.75 230.599L244.307 235.218L245.615 247.659L230.734 272.541C229.479 274.664 231.177 277.321 233.623 277.064L275.393 272.674C277.84 272.416 278.947 269.464 277.278 267.649Z" fill="#4DA9E9" fill-opacity="0.9" style="mix-blend-mode:multiply"/>
<path d="M291.127 157.19L294.77 166.474L299.977 157.961L303.14 121.987C300.011 122.039 297.031 121.266 294.375 119.806L291.127 157.19ZM318.265 113.404C316.695 115.997 314.458 118.168 311.765 119.676L332.492 149.249L341.257 154.018L339.813 144.144L318.265 113.404ZM315.929 100.719C314.427 95.113 309.534 91.34 304.046 90.8692L301.527 81.4682L292.902 83.7792L295.421 93.1801C290.904 96.3317 288.553 102.046 290.055 107.652C291.973 114.811 299.3 119.041 306.459 117.123C313.617 115.204 317.848 107.878 315.929 100.719ZM304.148 108.498C301.776 109.133 299.315 107.713 298.68 105.341C298.044 102.969 299.465 100.509 301.837 99.8732C304.209 99.2376 306.669 100.658 307.305 103.03C307.94 105.402 306.52 107.862 304.148 108.498Z" fill="#4DA9E9" fill-opacity="0.9" style="mix-blend-mode:multiply"/>
<path d="M127.601 256.017C125.992 255.762 124.326 255.642 122.626 255.731C112.678 256.058 103.748 262.641 100.401 272.008C97.2772 280.873 99.3071 289.8 104.536 296.185C105.83 297.752 106.341 299.733 106.031 301.692L104.753 309.773C104.144 313.621 106.794 317.268 110.642 317.876L111.621 318.031C112.059 319.189 112.795 320.21 113.754 320.991C114.714 321.772 115.863 322.285 117.085 322.479C118.307 322.672 119.559 322.539 120.713 322.092C121.867 321.645 122.882 320.901 123.655 319.935L124.635 320.09C128.482 320.699 132.129 318.049 132.738 314.201L134.016 306.12C134.321 304.196 135.389 302.429 137.063 301.367C140.023 299.491 142.549 297.006 144.472 294.076C146.395 291.146 147.67 287.84 148.214 284.378C150.356 270.84 141.139 258.159 127.601 256.017ZM125.741 313.094L111.749 310.88L112.302 307.382L126.295 309.596L125.741 313.094ZM126.848 306.098L112.856 303.884L113.409 300.386L127.402 302.6L126.848 306.098ZM124.695 285.713L123.262 294.773L119.764 294.22L121.197 285.159L115.803 277.78L118.679 275.689L123.45 282.253L130.013 277.482L132.104 280.359L124.695 285.713Z" fill="#4DA9E9" fill-opacity="0.9" style="mix-blend-mode:multiply"/>
<path d="M174.462 453.813C166.812 462.4 161.562 474.737 161.075 475.9L147.5 470.087L162.688 454.9C164.45 453.138 167 452.35 169.475 452.838L174.462 453.813ZM181.887 493.75C181.887 493.75 195.912 487.938 203.975 479.875C224.225 459.625 220.85 443.8 219.762 440.238C216.2 439.113 200.375 435.775 180.125 456.025C172.062 464.088 166.25 478.112 166.25 478.112L181.887 493.75ZM206.187 485.538C197.6 493.188 185.262 498.437 184.1 498.925L189.912 512.5L205.1 497.313C206.862 495.55 207.65 493 207.162 490.525L206.187 485.538ZM173.75 497.5C173.75 500.612 172.475 503.425 170.45 505.45C166.025 509.875 147.5 512.5 147.5 512.5C147.5 512.5 150.125 493.975 154.55 489.55C156.12 487.971 158.125 486.895 160.308 486.457C162.492 486.02 164.756 486.241 166.813 487.093C168.871 487.945 170.628 489.389 171.864 491.242C173.099 493.095 173.755 495.273 173.75 497.5ZM188.75 463.75C188.75 459.625 192.125 456.25 196.25 456.25C200.375 456.25 203.75 459.625 203.75 463.75C203.75 467.875 200.375 471.25 196.25 471.25C192.125 471.25 188.75 467.875 188.75 463.75Z" fill="#4DA9E9" fill-opacity="0.9" style="mix-blend-mode:multiply"/>
<path d="M190.057 82.6585L176.659 85.699L179.699 99.0976L193.098 96.0571L190.057 82.6585ZM187.618 92.6044L183.152 93.6179L182.138 89.1517L186.605 88.1382L187.618 92.6044ZM204.469 84.0843L203.456 79.6181L198.99 80.6316L197.976 76.1654C197.419 73.709 194.953 72.1553 192.497 72.7127L188.03 73.7262L187.017 69.26L182.551 70.2735L183.564 74.7397L179.098 75.7532L178.084 71.287L173.618 72.3005L174.632 76.7667L170.166 77.7801C167.709 78.3376 166.155 80.8034 166.713 83.2598L167.726 87.726L163.26 88.7395L164.274 93.2057L168.74 92.1922L169.753 96.6584L165.287 97.6719L166.301 102.138L170.767 101.125L171.78 105.591C172.338 108.047 174.804 109.601 177.26 109.043L181.726 108.03L182.74 112.496L187.206 111.483L186.192 107.016L190.659 106.003L191.672 110.469L196.138 109.456L195.125 104.989L199.591 103.976C202.047 103.419 203.601 100.953 203.044 98.4963L202.03 94.0301L206.496 93.0166L205.483 88.5504L201.017 89.5639L200.003 85.0978L204.469 84.0843ZM198.577 99.5098L176.247 104.577L171.179 82.2463L193.51 77.1789L198.577 99.5098Z" fill="#4DA9E9" style="mix-blend-mode:multiply"/>
<defs>
<clipPath id="clip0_183_9200">
<rect width="108" height="108" fill="white" transform="translate(22.4546) rotate(12)"/>
</clipPath>
</defs>
</svg>
